<?xml version="1.0" encoding="utf-8"?>
<!-- Generator: Adobe Illustrator 23.0.4, SVG Export Plug-In . SVG Version: 6.00 Build 0)  -->
<svg version="1.1" id="Layer_1" xmlns="http://www.w3.org/2000/svg" xmlns:xlink="http://www.w3.org/1999/xlink" x="0px" y="0px"
	 viewBox="0 0 956 138" style="enable-background:new 0 0 956 138;" xml:space="preserve">
<style type="text/css">
	.st0{fill:#C72C48;}
</style>
<g>
	<g>
		<rect x="232.847" y="1.546" class="st0" width="40.155" height="118.584"/>
		<path class="st0" d="M184.175,3.184l-81.509,49.779c-1.16,0.708-2.618,0.708-3.778,0L17.379,3.184
			c-1.754-1.071-3.77-1.638-5.825-1.638h-0.101c-6.172,0-11.176,5.004-11.176,11.176v107.273h40.129V68.935
			c0-3.135,3.433-5.059,6.108-3.423l45.677,27.944c4.502,2.754,10.155,2.807,14.708,0.137l48.203-28.272
			c2.675-1.569,6.044,0.36,6.044,3.462v51.213h40.129V12.722c0-6.172-5.004-11.176-11.176-11.176h-0.101
			C187.944,1.546,185.929,2.113,184.175,3.184z"/>
		<path class="st0" d="M473.234,1.546h-40.721v53.975c0,3.029-3.227,4.966-5.9,3.542L321.074,2.858
			c-1.617-0.861-3.421-1.312-5.253-1.312h-0.072c-6.172,0-11.176,5.004-11.176,11.176v107.28h40.399V66.088
			c0-3.026,3.221-4.963,5.894-3.545l105.955,56.196c1.613,0.855,3.411,1.303,5.236,1.303l0,0c6.172,0,11.176-5.004,11.176-11.176
			V1.546z"/>
	</g>
	<polygon class="st0" points="855.292,105.961 855.292,1.546 838.635,1.546 838.635,120.931 955.722,120.931 955.722,105.961 	"/>
	<path class="st0" d="M813.834,61.111c0-39.135-23.896-59.82-69.106-59.82h-25.493c-45.209,0-69.106,20.685-69.106,59.82
		c0,39.135,23.896,59.82,69.106,59.82h25.493c11.469,0,21.559-1.337,30.242-3.963l20.585,20.585l10.867-10.867l-16.42-16.42
		C805.709,100.433,813.834,83.909,813.834,61.111z M742.196,105.962h-20.427c-36.77,0-54.643-14.671-54.643-44.85
		c0-30.18,17.873-44.85,54.643-44.85h20.427c36.768,0,54.642,14.67,54.642,44.85c0,17.722-6.173,30.089-18.706,37.285
		l-22.592-22.592l-10.867,10.867l17.479,17.479C756.26,105.352,749.62,105.962,742.196,105.962z"/>
	<g>
		<path class="st0" d="M617.303,60.154c-9.127-4.425-24.891-6.653-52.331-6.653c-42.256,0-49.673-11.233-49.673-20.19
			c0-14.85,18.928-18.4,50.761-18.4c32.949,0,43.547,5.276,50.229,18.062l13.709-8.335c-9.387-16.481-24.693-24.19-64.275-24.19
			c-43.204,0-67.344,6.605-67.754,32.094c-0.333,20.748,17.833,35.08,64.85,35.08c38.167,0,55.498,2.151,55.498,19.668
			c0,5.293-3.108,9.291-5.531,11.746c-7.328,7.428-23.45,8.108-47.063,8.108c-34.363,0-49.133-9.317-56.042-23.974l-14.657,8.912
			c8.861,18.175,29.978,29.695,70.53,29.695c22.519,0,38.845-1.322,50.919-6.585c10.786-4.702,18.354-14.128,18.354-28.878
			C634.828,73.229,627.993,65.336,617.303,60.154z"/>
	</g>
</g>
</svg>
